<?xml version="1.0" encoding="UTF-8"?>
<svg id="Layer_2" data-name="Layer 2" xmlns="http://www.w3.org/2000/svg" viewBox="0 0 37.09 29.67">
  <defs>
    <style>
      .cls-1 {
        fill: #fff;
      }
    </style>
  </defs>
  <g id="Layer_1-2" data-name="Layer 1">
    <path class="cls-1" d="M6.96,12.48l-1.85,1.46v14.81c0,.51,.41,.93,.93,.93H14.84c.51,0,.93-.41,.93-.93v-5.56c0-1.56,1.22-2.78,2.78-2.78s2.78,1.22,2.78,2.78v5.56c0,.51,.41,.93,.93,.93h8.81c.51,0,.93-.41,.93-.93V13.94l-1.85-1.46v15.34h-6.95v-4.64c0-2.55-2.08-4.64-4.64-4.64s-4.64,2.08-4.64,4.64v4.64H6.96V12.48ZM18.52,0c-.19,0-.38,.07-.55,.19L.35,14.1c-.41,.33-.46,.93-.16,1.32,.3,.39,.93,.45,1.32,.14L18.55,2.12l17.04,13.45c.38,.3,1,.24,1.3-.14,.3-.38,.27-1.01-.14-1.32L19.13,.19C18.92,.05,18.72,0,18.52,0h0Z"/>
  </g>
</svg>