<svg width="203" height="67" viewBox="0 0 203 67" fill="none" xmlns="http://www.w3.org/2000/svg">
<path d="M86.3813 34.1838C86.3813 26.5815 91.5418 21.9959 98.4763 21.9959C105.693 21.9959 110.773 26.9033 110.773 34.224C110.773 42.1079 104.887 45.889 99.7261 45.889C97.0249 45.889 94.7268 44.8432 93.2754 42.832V54.9796H86.3813V34.1838ZM103.758 33.9425C103.758 30.6843 101.621 28.4318 98.5166 28.4318C95.3719 28.4318 93.2754 30.6843 93.2754 33.9425C93.2754 37.2006 95.4122 39.4532 98.5166 39.4532C101.661 39.4532 103.758 37.2006 103.758 33.9425Z" fill="white"/>
<path d="M130.165 22.5993H137.059V45.2856H130.165V22.5993Z" fill="white"/>
<path d="M140.486 32.5346C140.486 25.2541 144.719 22.0361 150.243 22.0361C153.468 22.0361 156.169 23.2831 157.863 25.6563C159.556 23.2831 162.217 22.0361 165.483 22.0361C171.006 22.0361 175.239 25.2541 175.239 32.5346V45.2856H168.345V32.5346C168.345 29.5178 166.853 28.4318 164.797 28.4318C162.781 28.4318 161.29 29.4776 161.29 32.5346V45.2856H154.395V32.5346C154.395 29.5178 152.904 28.4318 150.888 28.4318C148.832 28.4318 147.34 29.4776 147.34 32.5346V45.2856H140.446V32.5346H140.486Z" fill="white"/>
<path d="M177.94 33.9425C177.94 27.0642 183.02 21.9959 190.197 21.9959C197.373 21.9959 202.292 27.0642 202.292 33.9425V35.8732H185.117C185.681 38.528 187.697 39.7347 190.197 39.7347C192.172 39.7347 193.664 39.3325 194.51 38.0855H201.647C200.155 42.7515 195.841 45.889 190.197 45.889C182.98 45.889 177.94 40.8208 177.94 33.9425ZM195.196 31.529C194.43 29.196 192.575 28.1904 190.197 28.1904C187.818 28.1904 185.963 29.2363 185.278 31.529H195.196Z" fill="white"/>
<path d="M127.262 22.5993V29.4374H125.085C122.586 29.4776 120.529 31.529 120.529 34.0229V45.2856H113.635V34.0229C113.635 27.748 118.756 22.6395 125.045 22.5993H127.262Z" fill="white"/>
<path d="M133.713 19.9847C135.873 19.9847 137.624 18.2379 137.624 16.083C137.624 13.9281 135.873 12.1813 133.713 12.1813C131.553 12.1813 129.802 13.9281 129.802 16.083C129.802 18.2379 131.553 19.9847 133.713 19.9847Z" fill="white"/>
<path d="M66.7874 33.0173C66.5455 15.0372 51.8299 0.516293 33.7277 0.516293C15.4643 0.516293 0.668091 15.2785 0.668091 33.5C0.668091 51.7215 15.4643 66.4837 33.7277 66.4837C51.8299 66.4837 66.5052 51.9628 66.7874 33.9827C66.7874 33.8218 66.7874 33.6609 66.7874 33.5C66.7874 33.3391 66.7874 33.1782 66.7874 33.0173ZM56.6276 33.5C56.6276 38.166 52.8378 41.9068 48.2014 41.9068C43.565 41.9068 39.7752 38.1258 39.7752 33.5C39.7752 28.8742 43.565 25.0932 48.2014 25.0932C52.8378 25.0932 56.6276 28.834 56.6276 33.5ZM33.7681 56.3473C21.1489 56.3473 10.8682 46.1303 10.8682 33.5C10.8682 20.8697 21.1086 10.6527 33.7681 10.6527C38.7673 10.6527 43.3634 12.2617 47.1532 14.9567C37.3966 15.5199 29.6154 23.6049 29.6154 33.5C29.6154 43.3951 37.3562 51.4801 47.1532 52.0433C43.3634 54.7383 38.727 56.3473 33.7681 56.3473Z" fill="white"/>
<path d="M80.495 33.5C80.495 35.6319 78.7614 37.4017 76.5843 37.4017C74.4475 37.4017 72.6736 35.6721 72.6736 33.5C72.6736 31.3681 74.4072 29.5983 76.5843 29.5983C78.7614 29.5983 80.495 31.3681 80.495 33.5Z" fill="white"/>
<path d="M0.708405 33.5C0.708405 51.7215 15.5046 66.4837 33.7681 66.4837C51.8702 66.4837 66.5455 51.9628 66.8277 33.9827C66.5858 43.9985 58.3612 52.0835 48.2417 52.0835C47.8789 52.0835 47.516 52.0835 47.1532 52.0433C43.4037 54.7383 38.7673 56.3473 33.7681 56.3473C21.1489 56.3473 10.8682 46.1303 10.8682 33.5H0.708405Z" fill="url(#paint0_linear_3_58)"/>
<path d="M56.6276 33.5C56.6276 28.834 52.8378 25.0932 48.1611 25.0932C43.4844 25.0932 39.7349 28.8742 39.7349 33.5C39.7349 38.1258 43.5247 41.9068 48.1611 41.9068V52.0433C47.7982 52.0433 47.4354 52.0433 47.0725 52.0031C37.3159 51.4399 29.5348 43.3549 29.5348 33.4598C29.5348 23.5647 37.2756 15.4796 47.0725 14.9165C52.8781 19.0998 56.6276 25.8574 56.6276 33.5Z" fill="url(#paint1_linear_3_58)"/>
<defs>
<linearGradient id="paint0_linear_3_58" x1="23.6974" y1="49.9886" x2="65.4198" y2="49.9886" gradientUnits="userSpaceOnUse">
<stop offset="0.2042" stop-color="white"/>
<stop offset="0.392" stop-color="#DFEEFF"/>
<stop offset="0.8026" stop-color="#8DC3FF"/>
<stop offset="0.9659" stop-color="#6AB2FF"/>
</linearGradient>
<linearGradient id="paint1_linear_3_58" x1="36.2278" y1="46.9097" x2="50.0651" y2="15.8605" gradientUnits="userSpaceOnUse">
<stop offset="0.3217" stop-color="white"/>
<stop offset="0.4764" stop-color="#D8EBFF"/>
<stop offset="0.9286" stop-color="#6AB2FF"/>
</linearGradient>
</defs>
</svg>
